<svg width="40" height="40" viewBox="0 0 40 40" fill="none" xmlns="http://www.w3.org/2000/svg">
<path d="M15 21.6667C13.9 22.2167 12.9833 23.0334 12.3 24.05C11.9166 24.6334 11.9166 25.3667 12.3 25.95C12.9833 26.9667 13.9 27.7834 15 28.3334" stroke="white" stroke-width="1.5" stroke-linecap="round" stroke-linejoin="round"/>
<path d="M25.35 21.6667C26.45 22.2167 27.3666 23.0334 28.05 24.05C28.4333 24.6334 28.4333 25.3667 28.05 25.95C27.3666 26.9667 26.45 27.7834 25.35 28.3334" stroke="white" stroke-width="1.5" stroke-linecap="round" stroke-linejoin="round"/>
<path d="M15 36.6666H25C33.3334 36.6666 36.6667 33.3333 36.6667 25V15C36.6667 6.66665 33.3334 3.33331 25 3.33331H15C6.66671 3.33331 3.33337 6.66665 3.33337 15V25C3.33337 33.3333 6.66671 36.6666 15 36.6666Z" stroke="white" stroke-width="1.5" stroke-linecap="round" stroke-linejoin="round"/>
<path d="M3.71667 13.35L35.75 13.3333" stroke="white" stroke-width="1.5" stroke-linecap="round" stroke-linejoin="round"/>
</svg>
