<svg width="40" height="40" viewBox="0 0 40 40" fill="none" xmlns="http://www.w3.org/2000/svg">
<path fill-rule="evenodd" clip-rule="evenodd" d="M30.8334 7.36664H9.16671C6.28608 7.50175 4.05368 9.93506 4.16671 12.8166V21.9166C4.05368 24.7982 6.28608 27.2315 9.16671 27.3666H15.4C15.2293 28.43 14.9729 29.4779 14.6334 30.5L14.0667 32.0666C13.8963 32.485 13.9331 32.9592 14.166 33.3462C14.3989 33.7333 14.8006 33.9879 15.25 34.0333H24.75C25.1995 33.9879 25.6012 33.7333 25.834 33.3462C26.0669 32.9592 26.1037 32.485 25.9334 32.0666L25.3667 30.5C25.0272 29.4779 24.7708 28.43 24.6 27.3666H30.8334C33.714 27.2315 35.9464 24.7982 35.8334 21.9166V12.8166C35.9464 9.93506 33.714 7.50175 30.8334 7.36664ZM16.9167 31.5333V31.3333C17.2781 30.3129 17.5567 29.2651 17.75 28.2H22.1167C22.3179 29.2633 22.5964 30.3105 22.95 31.3333V31.5333H16.9167ZM30.8334 24.8666C32.3296 24.7255 33.4396 23.4158 33.3334 21.9166V12.8166C33.4396 11.3175 32.3296 10.0077 30.8334 9.86664H9.16671C7.67045 10.0077 6.56048 11.3175 6.66671 12.8166V21.9166C6.56048 23.4158 7.67045 24.7255 9.16671 24.8666H30.8334Z" fill="white"/>
</svg>
